<svg width="50" height="48" viewBox="0 0 50 48" fill="none" xmlns="http://www.w3.org/2000/svg">
<g clip-path="url(#clip0_15_19)">
<path d="M23 2L34 46" stroke="#FEFBFB" stroke-width="4" stroke-linecap="round"/>
<path d="M2 16V31" stroke="#FEFBFB" stroke-width="4" stroke-linecap="round"/>
<path d="M8 18L8 29" stroke="#FEFBFB" stroke-width="4" stroke-linecap="round"/>
<path fill-rule="evenodd" clip-rule="evenodd" d="M20.6633 14.2687C20.5239 13.7111 19.9443 13.3855 19.3956 13.5565L8.20244 17.0453C7.67517 17.2096 7.38096 17.7703 7.54531 18.2976C7.70965 18.8248 8.27031 19.119 8.79758 18.9547L19.9907 15.4659C20.4968 15.3082 20.7919 14.783 20.6633 14.2687V14.2687ZM37.0118 38.4317C36.8226 37.6747 37.5346 37.0023 38.2795 37.2345L44.7024 39.2364C45.3462 39.4371 46 38.9561 46 38.2817V8.71828C46 8.04395 45.3462 7.56292 44.7024 7.76358L31.4659 11.8893C30.9172 12.0603 30.3376 11.7347 30.1982 11.1771V11.1771C30.0696 10.6628 30.3647 10.1376 30.8707 9.97986L44.1073 5.85418C46.0387 5.2522 48 6.69529 48 8.71828V38.2817C48 40.3047 46.0387 41.7478 44.1073 41.1458L37.6844 39.1439C37.3513 39.0401 37.0964 38.7702 37.0118 38.4317V38.4317ZM25.5375 33.7655C25.4529 33.427 25.198 33.1571 24.8649 33.0533L8.79758 28.0453C8.27031 27.881 7.70965 28.1752 7.54531 28.7024C7.38096 29.2297 7.67517 29.7904 8.20244 29.9547L24.2698 34.9627C25.0147 35.1949 25.7267 34.5225 25.5375 33.7655V33.7655Z" fill="#FEFBFB"/>
<path d="M8.20244 17.0453L7.75609 15.6133L7.75609 15.6133L8.20244 17.0453ZM7.54531 18.2976L6.11326 18.7439L6.11326 18.7439L7.54531 18.2976ZM8.79758 18.9547L8.35122 17.5227L8.35122 17.5227L8.79758 18.9547ZM44.7024 39.2364L45.1488 37.8044L45.1488 37.8044L44.7024 39.2364ZM44.7024 7.76358L45.1488 9.19563L45.1488 9.19563L44.7024 7.76358ZM44.1073 5.85418L44.5537 7.28623L44.5537 7.28623L44.1073 5.85418ZM44.1073 41.1458L44.5537 39.7138L44.5537 39.7138L44.1073 41.1458ZM8.79758 28.0453L8.35122 29.4773L8.35122 29.4773L8.79758 28.0453ZM7.54531 28.7024L6.11326 28.2561L6.11326 28.2561L7.54531 28.7024ZM8.20244 29.9547L7.75608 31.3867L8.20244 29.9547ZM24.8649 33.0533L25.3113 31.6212L24.8649 33.0533ZM26.9927 33.4017C26.7918 32.598 25.9774 32.1093 25.1737 32.3103C24.37 32.5112 23.8814 33.3256 24.0823 34.1293L26.9927 33.4017ZM37.6844 39.1439L37.238 40.5759L37.6844 39.1439ZM35.5566 38.7955C35.7575 39.5992 36.5719 40.0879 37.3756 39.8869C38.1793 39.686 38.668 38.8716 38.467 38.0679L35.5566 38.7955ZM19.9907 15.4659L19.5444 14.0339L19.9907 15.4659ZM20.6633 14.2687L22.1185 13.9049L20.6633 14.2687ZM8.64879 18.4774L19.8419 14.9886L18.9492 12.1245L7.75609 15.6133L8.64879 18.4774ZM8.97736 17.8512C9.05953 18.1149 8.91243 18.3952 8.64879 18.4774L7.75609 15.6133C6.43792 16.0241 5.7024 17.4258 6.11326 18.7439L8.97736 17.8512ZM8.35122 17.5227C8.61486 17.4405 8.89519 17.5876 8.97736 17.8512L6.11326 18.7439C6.52411 20.0621 7.92576 20.7976 9.24393 20.3868L8.35122 17.5227ZM19.5444 14.0339L8.35122 17.5227L9.24393 20.3868L20.4371 16.898L19.5444 14.0339ZM37.8332 38.6665L44.2561 40.6685L45.1488 37.8044L38.7259 35.8024L37.8332 38.6665ZM44.2561 40.6685C45.8655 41.1701 47.5 39.9676 47.5 38.2817H44.5C44.5 37.9446 44.8269 37.704 45.1488 37.8044L44.2561 40.6685ZM47.5 38.2817V8.71828H44.5V38.2817H47.5ZM47.5 8.71828C47.5 7.03245 45.8655 5.82988 44.2561 6.33153L45.1488 9.19563C44.8269 9.29596 44.5 9.05544 44.5 8.71828H47.5ZM44.2561 6.33153L31.0195 10.4572L31.9122 13.3213L45.1488 9.19563L44.2561 6.33153ZM31.3171 11.4119L44.5537 7.28623L43.6609 4.42213L30.4244 8.54781L31.3171 11.4119ZM44.5537 7.28623C45.5193 6.98524 46.5 7.70678 46.5 8.71828H49.5C49.5 5.68379 46.558 3.51916 43.6609 4.42213L44.5537 7.28623ZM46.5 8.71828V38.2817H49.5V8.71828H46.5ZM46.5 38.2817C46.5 39.2932 45.5193 40.0148 44.5537 39.7138L43.6609 42.5779C46.558 43.4809 49.5 41.3162 49.5 38.2817H46.5ZM44.5537 39.7138L38.1307 37.7118L37.238 40.5759L43.6609 42.5779L44.5537 39.7138ZM8.35122 29.4773L24.4186 34.4854L25.3113 31.6212L9.24393 26.6132L8.35122 29.4773ZM8.97736 29.1488C8.89519 29.4124 8.61486 29.5595 8.35122 29.4773L9.24393 26.6132C7.92576 26.2024 6.52411 26.9379 6.11326 28.2561L8.97736 29.1488ZM8.64879 28.5226C8.91243 28.6048 9.05953 28.8851 8.97736 29.1488L6.11326 28.2561C5.7024 29.5742 6.43792 30.9759 7.75608 31.3867L8.64879 28.5226ZM24.7161 33.5307L8.64879 28.5226L7.75608 31.3867L23.8234 36.3948L24.7161 33.5307ZM24.4186 34.4854C24.252 34.4334 24.1246 34.2985 24.0823 34.1293L26.9927 33.4017C26.7812 32.5555 26.1439 31.8808 25.3113 31.6212L24.4186 34.4854ZM23.8234 36.3948C25.6858 36.9752 27.4658 35.2941 26.9927 33.4017L24.0823 34.1293C23.9877 33.7508 24.3437 33.4146 24.7161 33.5307L23.8234 36.3948ZM31.0195 10.4572C31.2939 10.3717 31.5837 10.5345 31.6534 10.8133L28.7429 11.5409C29.0914 12.9349 30.5405 13.7489 31.9122 13.3213L31.0195 10.4572ZM38.1307 37.7118C38.2973 37.7637 38.4247 37.8987 38.467 38.0679L35.5566 38.7955C35.7681 39.6417 36.4054 40.3164 37.238 40.5759L38.1307 37.7118ZM38.7259 35.8024C36.8635 35.222 35.0835 36.903 35.5566 38.7955L38.467 38.0679C38.5617 38.4464 38.2056 38.7826 37.8332 38.6665L38.7259 35.8024ZM20.4371 16.898C21.7023 16.5036 22.4399 15.1905 22.1185 13.9049L19.2081 14.6325C19.1438 14.3754 19.2913 14.1127 19.5444 14.0339L20.4371 16.898ZM31.6534 10.8133C31.7177 11.0704 31.5701 11.333 31.3171 11.4119L30.4244 8.54781C29.1592 8.94215 28.4215 10.2552 28.7429 11.5409L31.6534 10.8133ZM19.8419 14.9886C19.5676 15.0741 19.2778 14.9113 19.2081 14.6325L22.1185 13.9049C21.77 12.5109 20.321 11.6969 18.9492 12.1245L19.8419 14.9886Z" fill="#FEFBFB"/>
<path d="M11.5 31L14.1673 40.907C14.413 41.8197 14.5359 42.2761 14.775 42.5893C15.1362 43.0624 15.6893 43.35 16.284 43.374C16.6778 43.3899 17.122 43.2284 18.0103 42.9054V42.9054C18.7588 42.6332 19.1331 42.4971 19.4008 42.2746C19.8047 41.939 20.0604 41.4579 20.1126 40.9353C20.1472 40.589 20.0506 40.2026 19.8575 39.4299L18.5 34" stroke="#FEFBFB" stroke-width="4" stroke-linecap="round"/>
</g>
<defs>
<clipPath id="clip0_15_19">
<rect width="50" height="48" fill="white"/>
</clipPath>
</defs>
</svg>
