<!-- icon666.com - MILLIONS vector ICONS FREE --><svg id="Layer_1" enable-background="new 0 0 512 512" viewBox="0 0 512 512" xmlns="http://www.w3.org/2000/svg"><g><path fill="#a5a1b2" d="m447.9 384h-383.8c-26.5 0-48.1-21.6-48.1-48.1v-207.8c0-26.5 21.6-48.1 48.1-48.1h383.7c26.5 0 48.1 21.6 48.1 48.1v207.7c.1 26.6-21.5 48.2-48 48.2zm-383.8-272c-8.9 0-16.1 7.2-16.1 16.1v207.7c0 8.9 7.2 16.1 16.1 16.1h383.7c8.9 0 16.1-7.2 16.1-16.1v-207.7c0-8.9-7.2-16.1-16.1-16.1z"></path></g><g><path fill="#a5a1b2" d="m384 432h-256c-8.8 0-16-7.2-16-16s7.2-16 16-16h256c8.8 0 16 7.2 16 16s-7.2 16-16 16z"></path></g></svg>